<svg height="44" viewBox="0 0 314 44" width="314" xmlns="http://www.w3.org/2000/svg"><g fill="none" fill-rule="evenodd"><path d="m59.219 32.402c1.624-.205 2.654-1.15 2.654-2.546v-19.214c0-1.971-.198-2.382-3.05-2.997v-1.232h11.132c4.715 0 10.063 1.683 10.063 7.267 0 5.625-5.19 9.36-10.3 8.827v-1.56c3.09-.288 4.476-2.628 4.476-5.871 0-4.229-2.575-6.528-5.625-6.528h-.912l-.475.492v20.816c0 1.19-.198 2.094-.198 2.094l3.764.37-.159 1.355-11.37.246v-1.52zm31.458-2.669v-5.132l-1.07.205c-2.06.37-3.803 1.52-3.803 3.86 0 1.272.554 2.38 1.901 2.38 1.07 0 2.18-.615 2.972-1.313m-1.347-6.773 1.386-.206c0-1.355 0-3.325-.198-4.31-.237-1.191-.832-1.971-1.862-1.971-2.258 0-3.803 4.393-3.803 4.393h-1.823l-.871-3.613s3.209-2.628 8.399-2.628c4.16 0 5.19 1.642 5.19 5.871v9.238c0 1.232.198 1.93.95 1.93.833 0 1.744-.698 1.744-.698l.634 1.108s-1.941 2.217-4.913 2.217c-2.02 0-3.328-.985-3.328-2.75v-.657s-2.06 3.407-5.546 3.407c-2.338 0-4.636-1.519-4.636-4.598 0-4.147 4.636-6.117 8.677-6.733m11.49-4.23c-.793-2.094-2.299-2.381-2.299-2.381v-1.232h1.862c3.526 0 5.666-.164 5.666-.164l.158.164s-.832 1.724-.079 3.777l2.575 7.226c.238.74.516 1.765.713 2.546l2.774-6.487c.277-.616.356-1.56 0-2.546l-.357-.903c-.832-2.053-2.1-2.381-2.1-2.381v-1.232h1.664c3.527 0 5.666-.164 5.666-.164l.158.164s-.832 1.724-.079 3.777l2.575 7.144c.238.739.515 1.765.713 2.545l3.962-9.278c.753-1.766-.475-2.546-2.1-2.956v-1.232h5.745l.198.657s-.435.246-1.267 2.176l-7.013 16.34-2.377-.533-3.962-10.265-4.635 10.798-2.417-.533-5.745-15.027zm28.09 13.795c1.624-.205 2.258-1.19 2.258-2.669v-20.651c0-1.684-.04-2.71-1.189-2.71h-1.466v-1.315c6.34-1.314 8.003-2.094 8.003-2.094l.12.123s-.397 1.478-.397 4.64v22.006c0 1.232-.198 2.217-.198 2.217l3.17.37-.16 1.232-10.142.246v-1.396zm13.47-24.347c0-1.724 1.228-2.915 2.932-2.915s2.932 1.191 2.932 2.915c0 1.683-1.228 2.874-2.932 2.874s-2.932-1.19-2.932-2.874zm-1.505 24.347c1.624-.205 2.258-1.19 2.258-2.669v-9.73c0-1.684-.04-2.71-1.189-2.71h-1.584v-1.314c4.675-.78 8.082-2.053 8.082-2.053l.119.124s-.357 1.355-.357 4.68v11.003c0 1.232-.198 2.217-.198 2.217l3.17.37-.159 1.232-10.142.246zm21.195-17.901c2.378 0 6.38.821 6.38 3.285 0 1.026-.753 2.011-1.942 2.011-2.258 0-2.18-3.49-4.992-3.49-2.694 0-4.16 3.162-4.16 6.775 0 4.147 1.942 7.39 6.022 7.39 2.734 0 4.675-1.437 4.675-1.437l.475 1.19s-2.139 3.942-7.289 3.942c-5.507 0-8.597-4.516-8.597-9.32 0-4.885 3.288-10.346 9.429-10.346m15.412 20.939.357-.903c-.238-.74-.713-1.97-1.229-3.244l-5.348-12.686c-.872-2.053-2.298-2.381-2.298-2.381v-1.232h1.862c3.526 0 5.784-.164 5.784-.164l.159.164c-.476 1.026-.515 2.586-.08 3.777l2.893 7.308c.277.698.555 1.684.753 2.423l3.843-9.32c.594-1.602-.713-2.546-2.18-2.956v-1.232h5.825l.198.657s-.595.575-1.268 2.176l-5.983 14.493c-1.465 3.449-4.16 11.085-8.755 11.085-1.426 0-2.18-.944-2.18-2.094 0-.985.635-2.093 2.616-2.093 2.456 0 3.961-1.191 5.031-3.778m21.95-24.798-4.397 11.865h8.597l-3.407-9.36a25.65 25.65 0 0 1 -.793-2.505zm-12.003 21.842c1.664-.164 2.337-1.026 2.654-1.848l9.39-24.223 1.624-.37 8.796 23.32c1.07 2.793 1.782 2.998 3.01 3.203l-.158 1.109h-1.703c-1.466 0-6.022.123-6.022.123v-1.396c1.109-.041 2.1-.37 1.664-1.601l-2.417-6.57h-9.47l-.514.411-2.734 7.39 3.367.493-.158 1.15h-7.33v-1.191zm39.618-2.504v-11.538c0-1.888-1.585-2.176-2.853-2.176-4.041 0-6.656 2.998-6.656 7.76 0 3.942 1.823 7.76 5.388 7.76 1.942 0 3.487-1.15 4.12-1.806m-2.813-15.274c1.427 0 2.814.247 2.814.247v-5.872c0-1.765-.04-2.791-1.189-2.791h-1.664v-1.109c4.556-1.026 6.378-1.847 6.378-1.847l.12.123s-.397 1.519-.397 4.68v21.637c0 2.34.912 2.34 2.22 2.34h1.108l-.119 1.11c-4.318.45-6.339.78-6.339.78l-.118-.124s.158-1.15.158-2.176v-.862c-1.07 1.642-2.694 3.325-5.666 3.325-4.872 0-7.448-4.434-7.448-8.909 0-5.173 3.368-10.552 10.142-10.552m11.926 3.901c-.793-2.094-2.179-2.381-2.179-2.381v-1.027h1.822c2.496 0 3.962-.164 3.962-.164l.159.164c-.475 1.109-.475 2.546-.04 3.777l3.011 8.663c.238.74.515 1.766.713 2.546l4.675-10.962c.753-1.807-.475-2.628-1.98-2.997v-1.027h5.348l.198.657s-.594.246-1.426 2.135l-6.933 16.218-1.664-.534zm18.938-10.305c0-1.191.99-2.218 2.14-2.218 1.148 0 2.139 1.027 2.139 2.218 0 1.19-.99 2.217-2.14 2.217-1.149 0-2.139-1.027-2.139-2.217zm-1.585 24.305c1.783-.205 2.457-1.19 2.457-2.669v-9.976c0-1.766-.04-2.792-1.19-2.792h-1.782v-1.109c5.784-1.396 6.617-1.93 6.617-1.93l.039.124s-.436 1.355-.436 4.68v11.003c0 1.232-.198 2.218-.198 2.218l3.368.37-.159 1.026-8.716.246v-1.19zm11.529-4.352h1.189c.238 3.49 2.575 4.516 4.477 4.516 1.941 0 3.288-1.067 3.288-2.791 0-4.393-9.073-4.106-9.073-10.06 0-3.037 2.259-5.213 6.458-5.213 2.378 0 4.953.738 4.953.738l-.793 4.23h-1.228c0-3.367-2.733-3.573-3.565-3.573-2.14 0-2.972 1.355-2.972 2.628 0 4.352 9.033 3.572 9.033 10.059 0 3.407-2.575 5.378-6.339 5.378-1.822 0-5.943-.451-5.943-2.791 0-.822.515-3.12.515-3.12m23.97 4.515c3.368 0 5.19-3.53 5.19-7.923 0-4.065-1.585-8.746-5.587-8.746-3.644 0-5.19 3.86-5.19 7.801 0 4.106 1.625 8.868 5.587 8.868m.079-18.065c5.784 0 8.756 3.942 8.756 8.992 0 5.09-3.051 10.47-9.39 10.47-5.586 0-8.676-4.065-8.676-9.32 0-4.804 2.575-10.142 9.31-10.142m11.767 17.901c1.783-.205 2.457-1.19 2.457-2.668v-9.977c0-1.766-.04-2.792-1.189-2.792h-1.782v-1.109c3.882-.82 6.418-1.93 6.418-1.93l.119.124s-.357 1.355-.476 5.214c1.189-2.3 3.288-4.762 5.349-4.762.95 0 2.139.492 2.139 1.888 0 1.232-.832 2.012-1.862 2.012-.911 0-1.03-.698-1.942-.698-1.346 0-2.654 1.355-3.525 2.381v9.649c0 1.231-.198 2.217-.198 2.217l3.763.37-.158 1.026-9.113.246v-1.19z" fill="#000" fill-rule="nonzero"/><path d="m2.238 20.646c8.117 11.558 18.869 18.948 21.614 20.726.397.258.921.258 1.319 0 2.745-1.778 13.496-9.168 21.613-20.726 5.264-7.496 1.012-20.646-10.357-20.646-3.368 0-7.36 1.154-11.916 3.952-4.554-2.797-8.548-3.952-11.916-3.952-11.37-.002-15.622 13.15-10.357 20.646z" fill="#ecb04b"/><path d="m42.544 19.709c-7.48 11.093-17.284 18.355-20.42 20.515.69.5 1.245.886 1.634 1.148.383.258.887.258 1.27 0 2.64-1.782 12.987-9.189 20.798-20.772 4.82-7.149 1.347-19.43-8.428-20.6 7.215 3.19 9.38 13.429 5.146 19.709z" fill="#e26c33"/><g fill="#fff"><path d="m15.715 25.932c0 4.618 3.288 7.375 8.797 7.375s8.798-2.757 8.798-7.375c0-5.042-3.947-9.144-8.798-9.144-4.85 0-8.797 4.102-8.797 9.144z"/><path d="m15.708 11.271c0 2.297 1.38 4.165 3.077 4.165s3.077-1.868 3.077-4.165c0-2.09-1.198-5.127-3.077-5.127-1.878 0-3.077 3.037-3.077 5.127z"/><path d="m27.166 11.271c0 2.297 1.38 4.165 3.078 4.165 1.697 0 3.077-1.868 3.077-4.165 0-2.09-1.199-5.127-3.077-5.127-1.879 0-3.078 3.037-3.078 5.127z"/><path d="m34.65 18.578c0 2.224 1.552 4.035 3.458 4.035 1.907 0 3.458-1.81 3.458-4.035 0-2.025-1.347-4.966-3.458-4.966-2.11 0-3.457 2.941-3.457 4.966z"/><path d="m7.457 18.578c0 2.224 1.551 4.035 3.457 4.035 1.907 0 3.458-1.81 3.458-4.035 0-2.025-1.347-4.966-3.458-4.966-2.11 0-3.457 2.941-3.457 4.966z"/></g><path d="m22.972 21.22v1.558h-1.516c-.837 0-1.515.698-1.515 1.558s.678 1.557 1.515 1.557h1.516v1.558c0 .86.678 1.557 1.515 1.557s1.515-.697 1.515-1.557v-1.558h1.516c.836 0 1.515-.697 1.515-1.557s-.679-1.558-1.515-1.558h-1.516v-1.557c0-.86-.678-1.558-1.515-1.558s-1.515.697-1.515 1.558z" fill="#e26c33"/></g></svg>